<?xml version="1.0" encoding="utf-8"?>
<!-- Generator: Adobe Illustrator 23.0.6, SVG Export Plug-In . SVG Version: 6.00 Build 0)  -->
<svg version="1.1" id="Calque_1" xmlns="http://www.w3.org/2000/svg" xmlns:xlink="http://www.w3.org/1999/xlink" x="0px" y="0px"
	 viewBox="0 0 583.56 540.56" style="enable-background:new 0 0 583.56 540.56;" xml:space="preserve">
<style type="text/css">
	.st0{stroke:#000000;stroke-width:14;stroke-miterlimit:10;}
	.st1{stroke:#000000;stroke-width:10;stroke-miterlimit:10;}
</style>
<g>
	<path class="st0" d="M172.71,302.57c4.12-2.73,7.84-5.75,12.02-7.85c9.01-4.54,18.31-8.52,27.38-12.97
		c1.97-0.97,3.94-2.61,5.09-4.45c3.67-5.91,9.21-7.82,16.03-6.53c3.81,0.72,8.01-0.53,12.03-0.95c12.4-1.3,24.71-0.76,36.95,1.61
		c1.5,0.29,3.23,0.38,4.64-0.09c7.47-2.48,15.46-0.43,19.81,6.01c2.87,4.25,6.62,6.34,11.24,8.31
		c18.55,7.92,35.75,18.26,49.31,33.43c19.2,21.47,33.47,45.88,40.31,74.1c3.11,12.85,3.46,26.07,3.16,39.28
		c-0.07,2.87-0.01,5.74-0.01,9.3c1.61-0.94,2.74-1.49,3.75-2.2c16.02-11.32,32.72-21.82,47.89-34.2
		c24.98-20.38,47.97-42.88,64.62-70.98c2.67-4.51,5.05-9.2,7.49-13.84c1.65-3.13,4.31-2.48,6.4-1.22c0.93,0.56,1.52,3.37,0.95,4.49
		c-3.72,7.38-7.32,14.89-11.85,21.77c-13.45,20.46-29.71,38.45-47.52,55.33c-20.35,19.29-42.92,35.18-67.09,49.07
		c-29.07,16.71-59.86,29-92.82,35.48c-6.18,1.21-12.53,1.95-18.81,2.09c-13.96,0.31-27.97,0.65-41.9-0.12
		c-8.32-0.46-16.49-3.13-24.78-4.57c-20.77-3.6-40.39-10.53-59.33-19.66c-14.36-6.92-26.86-16.49-39.2-26.42
		c-28.14-22.65-49.1-50.61-64.2-83.38c-10.59-22.97-18.75-46.63-23.07-71.49c-3.44-19.79-3.84-39.81-2.09-59.89
		c1.96-22.44,6.91-44.21,15.21-65.04c11.91-29.9,28.59-56.82,52.14-79.2c21.87-20.8,46.34-37.77,73.8-50.18
		c15.75-7.12,32.57-11.09,49.55-14.24c17.51-3.25,35.08-5.69,52.97-5.32c27.8,0.57,54.55,6.55,80.64,15.64
		c10.52,3.66,20.71,8.33,30.89,12.91c6.2,2.79,10.51,7.53,10.83,14.76c0.23,5.19-3.08,8.59-8.39,8.95
		c-12.46,0.85-24.93,1.6-37.39,2.46c-30.4,2.09-59.11,10.21-85.93,24.66c-32.39,17.43-58.64,41.63-79.5,71.94
		c-17.73,25.76-28.32,54.09-33.23,84.87c-2.95,18.49-0.81,36.69,1.21,54.98C172.04,300.19,172.38,301.19,172.71,302.57z
		 M403.22,49.29c0.18-0.44,0.36-0.88,0.54-1.32c-1.3-1.21-2.39-2.87-3.93-3.57c-8.36-3.83-16.72-7.69-25.27-11.06
		c-20.95-8.25-42.75-13.21-65.17-14.73c-12.57-0.85-25.28-0.74-37.87-0.04c-12.04,0.67-24.27,1.55-35.98,4.27
		C172.92,37.37,123.74,71.36,90.11,126.5c-22.15,36.32-32.95,76.23-32.92,118.71c0.01,14.38,1.9,28.94,4.63,43.09
		c9.35,48.53,31.22,90.79,65.54,126.49c0.93,0.96,2.05,1.73,3.71,3.11c-0.09-1.88-0.13-2.76-0.18-3.65
		c-0.06-0.92-0.14-1.83-0.2-2.75c-1.19-18.84,1.56-37.12,7.24-55.11c5.32-16.86,12.06-32.78,25.27-45.2c0.93-0.88,1.08-3.1,0.88-4.6
		c-1.03-7.82-2.73-15.57-3.39-23.41c-2.55-30.58,2-60.23,13.84-88.47c20.07-47.86,52.98-84.82,97.55-111.19
		c33.44-19.78,70.25-28.36,108.68-31.15C388.27,51.82,395.73,50.34,403.22,49.29z M397.8,445.13c-1.2-4.68-1.84-8.76-3.3-12.52
		c-5.51-14.18-13.37-26.92-24.86-37.02c-8.85-7.77-17.96-15.27-27.32-22.41c-13.23-10.09-28.12-17.4-43.13-24.41
		c-0.97-0.45-2.99-0.18-3.66,0.55c-2.21,2.41-4.07,5.15-5.99,7.82c-1.91,2.65-1.88,4.95,1.02,7.07c5.21,3.8,10.29,7.78,15.41,11.72
		c14.52,11.18,28.5,22.98,39.54,37.73c10.24,13.69,19.19,28.21,25.57,44.17c0.73,1.82,1.23,3.69,3.81,2.38
		c6.55-3.34,13.19-6.51,19.56-10.15C396.04,449.14,396.76,446.73,397.8,445.13z M282.22,369.62c-1.65,2.51-2.69,5.17-4.62,6.76
		c-2.42,1.99-1.86,3.62-0.75,5.74c4.41,8.41,10.67,15.28,17.65,21.6c20.22,18.29,35.17,40.07,43.86,66.05
		c0.38,1.12,2.79,2.5,3.94,2.26c5.01-1.06,9.97-2.49,14.83-4.13c5.55-1.87,6.01-2.54,4.05-8c-4.39-12.24-11.24-23.19-18.75-33.71
		C326.21,403.48,304.58,386.51,282.22,369.62z M249.59,398.04c-3.28,4.85-6.73,9-9.16,13.69c-9.22,17.78-14.27,36.68-14.24,56.83
		c0,2.43,0.74,3.67,3.1,4.1c12.41,2.27,24.78,4.73,37.22,6.81c4.9,0.82,5.15,0.32,5.09-4.65c-0.28-25.35-6.59-49.14-18.61-71.43
		C252.03,401.6,250.81,399.94,249.59,398.04z M399.79,417.71c0.35-0.05,0.69-0.11,1.04-0.16c-0.97-6.85-1.68-13.74-2.97-20.53
		c-2.93-15.45-9.34-29.01-22.16-38.88c-19.17-14.76-39.63-27.15-62.85-34.57c-2.77-0.88-4.19-0.12-5.28,2.35
		c-1.38,3.12-2.73,6.28-4.43,9.23c-1.79,3.12-0.76,4.36,2.26,5.83c8.51,4.15,16.97,8.46,25.17,13.19
		C358.38,370.17,383.12,389.57,399.79,417.71z M233.96,366.9c-2.17,1.54-3.83,2.57-5.32,3.8c-4.77,3.95-9.49,7.95-14.19,11.98
		c-18.27,15.67-33.92,33.47-44.43,55.35c-4.11,8.55-4.05,8.75,3.91,13.4c4.45,2.6,9.22,4.66,13.93,7.01
		c1.45-3.81,2.38-6.83,3.7-9.66c7.73-16.49,17.81-31.34,30.98-44.01c6.08-5.84,12.24-11.59,18.22-17.53c0.97-0.96,2.02-3.08,1.6-4
		C239.86,377.82,236.94,372.58,233.96,366.9z M224.11,347.07c-7.16,4.21-14.01,8.11-20.73,12.2
		c-22.76,13.86-42.86,30.53-57.37,53.34c-3.87,6.08-3.58,11.71-0.01,17.35c2.08,3.3,5.02,6.05,7.42,9.16
		c2.24,2.9,3.12,1.7,4.63-0.84c5.64-9.51,11.01-19.24,17.49-28.16c12.96-17.84,29.41-32.29,46.74-45.77
		c6.63-5.16,6.6-5.2,3.64-12.96C225.45,350.18,224.92,349,224.11,347.07z M285.87,480.02c7.47-0.03,7.54-0.12,6.85-7.2
		c-0.05-0.52-0.04-1.05-0.08-1.58c-1.46-21.29-5.19-42.19-13.83-61.74c-6.21-14.05-13.77-27.54-21.2-41.01
		c-10.93-19.82-19.52-40.52-25.27-62.42c-1.54-5.85-3.12-11.7-5.02-17.45c-0.42-1.26-2.24-2.06-3.42-3.08
		c-0.96,1.24-2.6,2.4-2.74,3.72c-0.37,3.5-0.51,7.14,0.02,10.61c2.5,16.37,7.45,32.09,14.48,47.01
		c7.17,15.24,15.07,30.15,22.85,45.09c13.7,26.29,22.45,53.92,23.12,83.76C281.71,479.27,283.03,480.58,285.87,480.02z
		 M141.33,401.08c0.37,0.09,0.74,0.18,1.11,0.27c0.95-1.19,1.9-2.38,2.84-3.58c3.24-4.14,6.12-8.62,9.76-12.37
		c17.77-18.29,38.57-32.53,60.91-44.61c3.26-1.77,4.91-3.34,2.97-7.14c-1.18-2.31-1.83-4.94-2.43-7.49
		c-0.64-2.74-1.93-3.19-4.54-2.36c-15.4,4.91-29.86,11.77-43.07,21.06c-17.97,12.64-29.02,29.15-28.05,52.06
		C140.89,398.32,141.16,399.7,141.33,401.08z M256.23,336.96c2.37-4.65,4.54-8.33,6.18-12.22c5.77-13.68,11.3-27.47,17.07-41.15
		c1.29-3.06,0.3-3.89-2.61-4.32c-12.61-1.86-25.19-1.53-37.78,0.22c-2.21,0.31-3.06,1.2-2.49,3.38
		c4.44,16.89,7.95,34.08,16.43,49.63C253.75,333.76,254.74,334.89,256.23,336.96z M268.56,364.31c0.65,0.31,1.29,0.63,1.94,0.94
		c0.75-1.4,1.38-2.87,2.26-4.19c5.99-8.95,12.29-17.71,17.99-26.84c6.58-10.54,10-22.28,11.12-34.63
		c0.54-5.95-0.94-11.29-6.35-14.73c-3.66-2.33-5.29-2.01-6.97,2c-4.2,10.05-7.78,20.37-12.2,30.32
		c-4.73,10.64-10.14,20.97-15.19,31.47c-0.35,0.73-0.58,1.91-0.24,2.53C263.37,355.6,265.99,359.94,268.56,364.31z M304.55,479.3
		c6.6-1.1,13.43-2.4,20.3-3.33c3.82-0.52,4.42-2.09,3.25-5.55c-7.17-21.24-19.67-39.07-34.02-54.41
		C297.43,436.21,300.91,457.3,304.55,479.3z M207.95,293.3c-19.57,3.35-55.62,37.22-55.63,53.21c1.18-0.89,2.06-1.55,2.95-2.21
		c6.01-4.46,11.61-9.7,18.13-13.21c11.9-6.42,24.33-11.88,36.62-17.56c2.01-0.93,2.51-1.8,1.98-3.84
		C210.56,304.26,209.29,298.79,207.95,293.3z M369.27,339.79c-1.29-11.05-41.24-42.18-54.46-43.25c-0.61,4.66-1.03,9.37-1.9,13.99
		c-0.48,2.58,0.33,3.31,2.69,4.08c16.42,5.39,32.41,11.8,46.95,21.35C364.49,337.25,366.59,338.28,369.27,339.79z M223.21,417.75
		c-4.09,5.31-8.5,10.16-11.89,15.65c-4.47,7.24-8.31,14.9-12.05,22.56c-1.2,2.46-2.23,6.09,1.24,7.68
		c4.55,2.07,9.46,3.34,13.31,4.64C217.01,451.15,220.06,434.73,223.21,417.75z"/>
	<path class="st1" d="M287.29,535.33c-50.29,1.34-96.75-12.13-139.78-37.2c-33.22-19.35-60.78-45.03-82.07-77.41
		c-25.65-39-42.07-81.68-52.47-126.9c-2.59-11.26-4.65-22.65-6.92-33.99c-0.86-4.27,0.3-6.83,3.19-7.32
		c2.91-0.49,6.03,2.13,6.81,5.85c1.24,5.92,2.41,11.85,3.58,17.78c5.88,29.86,16.8,57.99,29.16,85.65
		c9.11,20.4,21.94,38.43,36.15,55.39c24.38,29.09,53.3,52.41,87.85,68.95c23.39,11.2,47.63,18.73,73.02,22.98
		c22.46,3.76,45.08,3.94,67.78,2.53c34.93-2.17,67.44-13.08,99.19-26.93c21.36-9.32,40.61-22.18,59.76-35.24
		c27.9-19.02,51.85-42.35,72.67-68.74c9.24-11.71,16.79-24.83,22.28-38.93c0.87-2.24,2.71-4.34,4.63-5.81
		c0.92-0.7,3.78-0.34,4.53,0.56c1.15,1.39,1.71,3.68,1.64,5.55c-0.06,1.72-1.1,3.5-2.02,5.07c-17.12,29.24-35.26,57.73-57.51,83.49
		c-25.69,29.75-56.4,52.78-91.05,70.97c-26.42,13.86-54.25,23.77-83.54,28.81C325.4,533.69,307,535.03,287.29,535.33z"/>
</g>
</svg>
