<?xml version="1.0" encoding="utf-8"?>
<!-- Generator: Adobe Illustrator 23.0.6, SVG Export Plug-In . SVG Version: 6.00 Build 0)  -->
<svg version="1.0" id="Calque_1" xmlns="http://www.w3.org/2000/svg" xmlns:xlink="http://www.w3.org/1999/xlink" x="0px" y="0px"
	 viewBox="0 0 583.56 540.56" style="enable-background:new 0 0 583.56 540.56;" xml:space="preserve">
<style type="text/css">
	.st0{fill:none;stroke:#000000;stroke-width:50;stroke-miterlimit:10;}
	.st1{stroke:#000000;stroke-width:20;stroke-miterlimit:10;}
</style>
<g>
	<path class="st0" d="M23.31,270.46c0,47.43,0,94.86,0,142.29c0,4.59,0,9.18,0.02,13.77c0.19,56.39,38.27,93.14,97.19,93.22
		c109.86,0.15,219.72,0.16,329.58-0.01c58.9-0.09,97.07-36.79,97.14-93.26c0.13-104.04,0.14-208.07-0.01-312.11
		c-0.08-57.06-38.41-93.17-98.78-93.21c-108.79-0.09-217.58-0.08-326.36,0.01c-61.06,0.05-98.69,36.24-98.76,94.79
		C23.26,167.44,23.3,218.95,23.31,270.46z"/>
	<path class="st1" d="M361.29,195.19c-21.5,0-41.22-0.35-60.92,0.12c-14.52,0.34-20.99-4.79-20.47-18.93
		c0.82-22.24,0.22-44.53,0.22-67.55c-12.52,0-23.21,0-34.59,0c-5.05,39.97-27.45,68.61-62.93,89
		c-21.24,12.21-22.6,15.15-15.73,40.16c5.02,0,10.43-0.01,15.83,0c27.68,0.07,27.98,0.33,28.01,25.33
		c0.04,34.66-1.43,69.4,0.72,103.94c1.11,17.81,6.5,36.1,13.86,52.69c8.6,19.38,26.23,32.78,49.54,32.73
		c26-0.06,52.56-1.62,77.83-6.87c33.15-6.88,36.03-13.72,31.27-46.18c-13.79,2.82-27.48,6.39-41.43,8.32
		c-36.49,5.03-62.14-15.68-62.33-49.91c-0.19-33.64,0.55-67.29-0.3-100.91c-0.38-14.93,5.85-19.95,21.32-19.33
		c19.98,0.8,40.02,0.2,60.1,0.2C361.29,222.61,361.29,210,361.29,195.19z"/>
</g>
</svg>
